<?xml version="1.0" encoding="iso-8859-1"?>
<!-- Generator: Adobe Illustrator 19.0.0, SVG Export Plug-In . SVG Version: 6.00 Build 0)  -->
<svg version="1.1" id="Capa_1" xmlns="http://www.w3.org/2000/svg" xmlns:xlink="http://www.w3.org/1999/xlink" x="0px" y="0px"
	 viewBox="0 0 512.002 512.002" style="enable-background:new 0 0 512.002 512.002;" xml:space="preserve">
<path style="fill:#CFD8DC;" d="M274.232,280.147l-42.667-42.667c-4.165-4.164-10.917-4.164-15.083,0L70.264,383.699H53.347
	c-4.037,0-7.728,2.279-9.536,5.888L1.144,474.92c-2.05,4.107-1.242,9.065,2.005,12.309l21.333,21.333
	c3.244,3.247,8.202,4.055,12.309,2.005l85.333-42.667c3.609-1.808,5.888-5.499,5.888-9.536v-16.917L274.232,295.23
	C278.396,291.064,278.396,284.312,274.232,280.147z"/>
<path style="fill:#F44336;" d="M493.816,30.419l-12.523-12.523c-24.594-23.457-63.278-23.457-87.872,0L259.128,152.147
	c-1.999,2.004-3.12,4.721-3.115,7.552c0,17.673-14.327,32-32,32c-2.831-0.005-5.548,1.115-7.552,3.115l-21.333,21.333
	c-4.164,4.165-4.164,10.917,0,15.083l85.333,85.333c4.165,4.164,10.917,4.164,15.083,0l21.333-21.333
	c2.002-1.996,3.13-4.704,3.136-7.531c0-17.673,14.327-32,32-32c2.831,0.005,5.548-1.115,7.552-3.115l134.251-134.272
	c24.248-24.272,24.248-63.6,0-87.872V30.419z"/>
<g>
	<path style="fill:#C62828;" d="M298.68,191.699c-5.891,0.011-10.675-4.757-10.686-10.648c-0.005-2.84,1.123-5.565,3.134-7.571
		l128-128c4.093-4.237,10.845-4.354,15.083-0.262c4.237,4.093,4.354,10.845,0.262,15.083c-0.086,0.089-0.173,0.176-0.262,0.262
		l-128,128C304.215,190.565,301.507,191.693,298.68,191.699z"/>
	<path style="fill:#C62828;" d="M330.68,223.699c-5.891,0.011-10.675-4.757-10.686-10.648c-0.005-2.84,1.123-5.565,3.134-7.571
		l128-128c4.093-4.237,10.845-4.355,15.083-0.262s4.354,10.845,0.262,15.083c-0.086,0.089-0.173,0.176-0.262,0.262l-128,128
		C336.215,222.565,333.507,223.693,330.68,223.699z"/>
</g>
<path d="M288.014,319.699c-2.831,0.005-5.548-1.115-7.552-3.115l-85.333-85.333c-4.164-4.165-4.164-10.917,0-15.083l21.333-21.333
	c2.001-2.007,4.718-3.135,7.552-3.136c17.673,0,32-14.327,32-32c-0.005-2.831,1.115-5.548,3.115-7.552L393.4,17.896
	c24.726-23.126,63.146-23.126,87.872,0l12.544,12.544c24.248,24.272,24.248,63.6,0,87.872L359.544,252.584
	c-1.999,1.994-4.707,3.114-7.531,3.115c-17.673,0-32,14.327-32,32c0.005,2.831-1.115,5.548-3.115,7.552l-21.333,21.333
	C293.561,318.584,290.844,319.704,288.014,319.699z M217.763,223.699l70.251,70.251l10.88-10.88
	c2.253-25.79,22.701-46.238,48.491-48.491L478.734,103.23c15.92-15.941,15.92-41.765,0-57.707L466.19,32.979
	c-16.246-15.166-41.461-15.166-57.707,0L277.134,164.328c-2.252,25.79-22.701,46.238-48.491,48.491L217.763,223.699z"/>
<path d="M32.014,511.699c-2.831,0.005-5.548-1.115-7.552-3.115L3.128,487.251c-3.247-3.244-4.055-8.202-2.005-12.309l42.667-85.333
	c1.806-3.624,5.508-5.913,9.557-5.909h16.917L216.483,237.48c4.237-4.092,10.99-3.975,15.083,0.262
	c3.992,4.134,3.992,10.687,0,14.82L82.232,401.896c-2.001,2.007-4.718,3.135-7.552,3.136H59.939l-36.267,72.533l10.453,10.453
	l72.533-36.267v-14.72c-0.005-2.831,1.115-5.548,3.115-7.552l149.333-149.333c4.237-4.092,10.99-3.975,15.083,0.262
	c3.992,4.134,3.992,10.687,0,14.82L128.014,441.448v16.917c0,4.037-2.279,7.728-5.888,9.536l-85.333,42.667
	C35.309,511.312,33.673,511.699,32.014,511.699z"/>
<path d="M298.68,191.699c-5.891,0.011-10.675-4.757-10.686-10.648c-0.005-2.84,1.123-5.565,3.134-7.571l128-128
	c4.093-4.237,10.845-4.354,15.083-0.262c4.237,4.093,4.354,10.845,0.262,15.083c-0.086,0.089-0.173,0.176-0.262,0.262l-128,128
	C304.215,190.565,301.507,191.693,298.68,191.699z"/>
<path d="M330.68,223.699c-5.891,0.011-10.675-4.757-10.686-10.648c-0.005-2.84,1.123-5.565,3.134-7.571l128-128
	c4.093-4.237,10.845-4.355,15.083-0.262s4.354,10.845,0.262,15.083c-0.086,0.089-0.173,0.176-0.262,0.262l-128,128
	C336.215,222.565,333.507,223.693,330.68,223.699z"/>
<g>
</g>
<g>
</g>
<g>
</g>
<g>
</g>
<g>
</g>
<g>
</g>
<g>
</g>
<g>
</g>
<g>
</g>
<g>
</g>
<g>
</g>
<g>
</g>
<g>
</g>
<g>
</g>
<g>
</g>
</svg>
