<?xml version="1.0" encoding="UTF-8"?>
<!DOCTYPE svg PUBLIC "-//W3C//DTD SVG 1.1//EN" "http://www.w3.org/Graphics/SVG/1.1/DTD/svg11.dtd">
<!-- Creator: CorelDRAW 2019 (64-Bit Zkušební verze) -->
<svg xmlns="http://www.w3.org/2000/svg" xml:space="preserve" width="200px" height="800px" version="1.1" style="shape-rendering:geometricPrecision; text-rendering:geometricPrecision; image-rendering:optimizeQuality; fill-rule:evenodd; clip-rule:evenodd"
viewBox="0 0 200 800"
 xmlns:xlink="http://www.w3.org/1999/xlink"
 xmlns:xodm="http://www.corel.com/coreldraw/odm/2003">
 <defs>
  <style type="text/css">
   <![CDATA[
    .fil0 {fill:#7F7F7F;fill-rule:nonzero}
   ]]>
  </style>
 </defs>
 <g id="Vrstva_x0020_1">
  <metadata id="CorelCorpID_0Corel-Layer"/>
  <path class="fil0" d="M150 156c0,0 1,1 0,2 -1,1 -8,23 -8,25l-4 23 -1 5 -2 10 -1 6 -2 11 -4 42 -1 6 0 6 -2 25 -1 19 0 6 0 6 -2 30 0 12 -1 6 0 12 -1 6 0 18 0 39 0 28 0 19 2 22c1,3 0,2 1,7 0,2 2,7 -1,7 -2,0 -2,-3 -3,-5l-1 -5 0 0 0 -2 0 0 -1 -17c-1,-8 0,-21 0,-30l0 -34 0 -11 0 -5 1 -30 1 -12 0 -6 1 -12 0 -6 2 -30 0 -6 0 -6 1 -19 1 -19 1 -12 3 -31c2,-20 5,-41 8,-61l3 -17 1 -3c1,-3 4,-16 7,-18 1,-1 2,-2 4,-1z" fill-mode="evenodd"/>
  <path class="fil0" d="M162 118c4,2 3,1 4,9l1 5c0,0 1,6 2,8l1 3 1 3 2 6 1 3c1,3 0,2 2,5 2,3 1,4 6,9l-1 1c-2,0 -6,-4 -7,-6l-3 -5 -6 -14c-2,-7 -3,-15 -4,-22l-7 9c0,1 -4,8 -5,8l-10 14 -2 3c-3,4 -7,10 -11,14l-5 4c-2,1 -1,1 -3,1 -1,-1 -1,-1 0,-2 2,-1 3,-2 4,-3l2 -1 9 -11 2 -3 2 -3 12 -16 3 -5 6 -8c2,-2 0,-2 5,-4z" fill-mode="evenodd"/>
  <path class="fil0" d="M42 388l1 0 0 0c1,0 1,0 2,1l-1 1 -1 0 12 6 10 3c7,3 7,2 16,7 13,8 -11,13 -17,14 -3,0 -16,1 -19,2l5 4 32 16 7 3c0,-1 2,0 2,1 0,1 2,0 1,3l0 0 0 0c-2,1 -2,1 -4,0l-7 -3 -12 -6 -17 -8 -2 -1c-2,-1 -1,0 -3,-2 -1,-1 -8,-6 -5,-8 4,-3 7,-2 10,-2 2,-1 11,-1 14,-2 3,-1 7,-1 11,-3 1,0 3,-1 4,-2l-10 -5 -13 -5c-6,-2 -5,-2 -11,-4 -2,-1 -6,-2 -7,-5 0,-1 0,-2 0,-2 0,0 1,-1 3,-1z" fill-mode="evenodd"/>
  <path class="fil0" d="M72 370c4,0 6,4 8,5 2,1 4,4 5,6 1,3 0,6 -2,8 -2,2 -2,2 -6,2 -2,0 -9,0 -10,-5 -1,-2 1,-1 -1,-4l-1 -4c1,-3 0,-2 2,-6 1,-2 3,-2 5,-2zm-1 4l-1 0c-1,1 -2,4 -1,5l2 -1 1 1c-2,2 -2,4 0,6l1 1 0 0c3,1 4,1 8,1 1,0 3,-2 2,-4l-2 -3c-1,-1 -5,-5 -7,-6l-2 0z" fill-mode="evenodd"/>
  <path class="fil0" d="M65 343l17 6c1,0 4,1 5,2 1,1 0,3 0,3l0 0 0 0c-1,1 -7,2 -10,2 -1,0 -5,0 -6,0 0,0 -5,1 -6,-1 -1,-2 1,-3 4,-3l10 -1c-3,-1 -16,-4 -17,-8 -1,-2 2,-2 3,-2l0 0z" fill-mode="evenodd"/>
  <path class="fil0" d="M78 302c1,1 5,4 5,5 1,0 3,5 4,7 1,2 1,7 0,9 -2,4 -4,4 -7,5l0 0 -9 -1c-1,0 -5,-2 -6,-4l0 -1c-1,-1 -1,-1 -2,-3 -1,-2 1,-7 4,-8 5,-2 9,1 11,5 1,2 1,0 2,6 6,-2 2,-11 0,-16 -1,-3 -2,-4 -2,-5l1 -1 0 0zm-9 13c-2,1 -2,1 -3,3 0,1 2,4 3,4 4,2 4,2 8,2l-1 -4c0,0 -2,-3 -3,-4l-3 -1z" fill-mode="evenodd"/>
  <path class="fil0" d="M49 288c4,4 6,9 5,15 -2,11 -10,12 -12,10 -1,-2 -1,-1 0,-4l2 -2c1,1 1,0 1,3 2,-1 3,-1 4,-5 2,-6 1,-6 0,-12l-1 -5 1 -1 0 0z" fill-mode="evenodd"/>
  <path class="fil0" d="M70 268c2,0 1,1 4,2 3,1 1,0 5,2l11 7c5,5 2,18 -1,19l0 0c-2,1 -1,0 -2,0l-1 -2 1 -4 1 -6c0,-3 -1,-4 -3,-5l-6 -4c-2,-1 -4,-3 -7,-3l0 16c0,1 -3,2 -3,0 -1,-7 -1,-10 -1,-17 -1,-1 -1,1 -1,-2 1,-1 -1,-1 2,-2z" fill-mode="evenodd"/>
  <path class="fil0" d="M72 239l2 1 0 2 -2 1c-1,3 0,3 0,4 2,1 3,1 5,0l7 -4 3 -1 2 1 2 3c2,4 2,14 -1,16 -2,1 -3,-1 -5,-3l1 -1 1 1c1,-5 1,-8 -1,-12 -4,2 -9,6 -14,5l-3 -1c-2,-1 -3,-9 1,-10l2 0z" fill-mode="evenodd"/>
  <path class="fil0" d="M57 227l5 6c3,4 0,10 -4,11 -8,2 -10,-2 -8,-3 1,0 1,2 4,1 2,-1 2,0 4,-2l0 -3c-1,-3 -2,-4 -3,-7 0,-1 0,-1 1,-2l1 0z" fill-mode="evenodd"/>
  <path class="fil0" d="M75 215c4,0 7,4 10,6l8 4c2,0 3,6 -7,1l0 0c-3,-1 -6,-3 -8,-5 -6,-6 -1,-2 -4,-6l1 -1 0 0z" fill-mode="evenodd"/>
  <path class="fil0" d="M59 189c5,6 3,5 7,13l1 2c0,1 0,1 0,1 2,3 -2,5 -3,2l-1 -3 -4 -11c0,-1 0,-3 -1,-5l1 -1 0 0z" fill-mode="evenodd"/>
 </g>
</svg>
