<svg version="1" xmlns="http://www.w3.org/2000/svg" width="346.667" height="346.667" viewBox="0 0 260.000000 260.000000"><path d="M115 .6C89.1 5.4 74.3 11.1 56 23.3c-9.5 6.3-28.1 25-34.3 34.4C3.6 85.1-3.6 117.3 1.5 148.5c8.9 55.2 48.4 97.6 101.7 109.2 11.8 2.5 39.9 2.5 51.8 0 26.8-5.8 47.2-16.8 66.6-36.1 17.6-17.6 28.6-36.3 34.6-59.3 2.9-11.1 3.1-13 3.2-30.3.1-20.1-.8-26.6-5.5-41.1-11.8-36.5-39.3-66.5-74.8-81.4-14.9-6.3-26.6-8.6-45.1-9-9.1-.2-17.6-.2-19 .1zm42.3 19.3c40.6 10.7 71.6 41.5 82.4 81.8 2.4 8.9 2.7 11.5 2.7 28.8 0 17.4-.2 19.8-2.6 28.7-11.6 42.5-45.9 73.9-89.9 82.3-10.8 2-32.6 2-42.7-.1-34.3-7-62.1-29-78.5-61.9C7.1 135.9 14.1 87.2 46.9 52.6c16.4-17.2 39.4-29.7 62.8-34.1 11.3-2.1 37.1-1.4 47.6 1.4z"/><path d="M137.3 57.3c-.2.4-.1 32.9.3 72.2l.7 71.4 3.5 1.2c7.6 2.5 25.3-.6 37.7-6.6 40.4-19.5 52.6-76.1 24-111.7-9.2-11.5-25.8-21.3-42-24.7-9.9-2.1-23.4-3.1-24.2-1.8zm25 13.9l7.7 2V89h-24V67.8l4.3.7c2.3.4 7.7 1.6 12 2.7zm21.8 6.6c4.4 2.8 9.9 8.5 9.9 10.3 0 .5-3.4.9-7.5.9H179v-3.3c0-1.7-.3-4.9-.6-7-.4-2.1-.3-3.7.3-3.7.5 0 2.9 1.3 5.4 2.8zm-14.3 27.3l.3 7.6-6.8.6c-3.7.4-9.2.7-12 .7H146v-6.9c0-10.6-.5-10.2 12.4-9.9l11.1.3.3 7.6zm34.6-3.4c1.3 2.7 2.7 6.3 3.1 8l.7 3.3H179V97h23l2.4 4.7zm-33.9 24.6c.4 2.3.5 5.8.3 7.7l-.3 3.5-12.2.3-12.3.3v-6.5c0-10-.5-9.6 12.5-9.6h11.4l.6 4.3zm40.5-2.1c0 1.3-.3 4.7-.6 7.5l-.7 5.3H179v-15h16c15.9 0 16 0 16 2.2zm-40.4 25.5c.4 2 .3 5.7-.2 8.2l-.9 4.6-11.2.3-11.3.3V146h22.9l.7 3.7zm38.1-2.5c-.3.7-1.7 4.3-3.2 8l-2.7 6.8H179v-16h15.1c11.7 0 15 .3 14.6 1.2zm-37.9 31.4l.3 8.2-6.8 1.6c-3.7.9-9.2 2-12 2.5l-5.3.8v-10.2c0-5.6.3-10.5.7-10.9.4-.3 5.7-.5 11.7-.4l11.1.3.3 8.1zM72.2 70c-15.8 5.7-25.8 16.5-27 29.1-.4 4.3-.1 5.1 2.6 7.9 5.9 5.9 12.4 3.1 16-6.8 3.1-8.4 6.1-12.4 11.2-15 15-7.5 33 5 27.5 19.3-1.1 3-4.7 7.2-12.4 14.6-11.8 11.3-15 16.3-15.8 24.4-.8 7.2.2 10.2 3.7 12 6.3 3.3 11.2.4 12.9-7.6 1.7-7.7 3.2-9.8 14.8-20.7 15.8-14.6 19.6-22.9 15.9-35.4-5-17.4-30.5-28.6-49.4-21.8zM78.8 161.9c-7.2 2.3-11.8 8.5-11.8 16 0 9.7 5.4 15.3 15.5 15.9 5 .3 6.5 0 9.4-2 4.9-3.3 7.2-6.9 7.8-12.1.7-5.8-2.5-12.8-7.1-15.6-3.8-2.4-10-3.4-13.8-2.2z"/></svg>